<?xml version="1.0" encoding="UTF-8" standalone="no"?>
<svg
  version="2.0"
  id="bi_wartime"
  xmlns="http://www.w3.org/2000/svg"
  xmlns:svg="http://www.w3.org/2000/svg"
  xmlns:rdf="http://www.w3.org/1999/02/22-rdf-syntax-ns#"
  xmlns:cc="http://creativecommons.org/ns#"
  xmlns:dc="http://purl.org/dc/elements/1.1/"
  width="1000"
  height="600"
  viewBox="0 0 1000 600">
  <title id="bi_wartime_title">Bisexual War Flag v.1
  </title>
  <metadata id="bi_wartime_metadata">
    <rdf:RDF>
      <cc:License rdf:about="http://creativecommons.org/publicdomain/zero/1.0/">
        <cc:permits rdf:resource="http://creativecommons.org/ns#Reproduction" />
        <cc:permits rdf:resource="http://creativecommons.org/ns#Distribution" />
        <cc:permits rdf:resource="http://creativecommons.org/ns#DerivativeWorks" />
      </cc:License>
      <cc:Work rdf:about="">
        <cc:license rdf:resource="http://creativecommons.org/publicdomain/zero/1.0/" />
        <dc:title>Bisexual War Flag</dc:title>
        <dc:date>2025-03-02</dc:date>
        <dc:creator>
          <cc:Agent>
            <dc:title>Timothy Rezendes</dc:title>
          </cc:Agent>
        </dc:creator>
        <dc:source>https://232.software/WarFlags/</dc:source>
        <dc:language>en</dc:language>
      </cc:Work>
    </rdf:RDF>
  </metadata>
  <defs>
    <style>
      .pink {
        stroke: rgb(214, 2, 112);
        fill: rgb(214, 2, 112);
      }

      .purple {
        stroke: rgb(155, 79, 150);
        fill: rgb(155, 79, 150);
        stroke: #000000;
        stroke-width: 1px;
      }

      .blue {
        stroke: rgb(0, 56, 168);
        fill: rgb(0, 56, 168);
      }

      .white {
        stroke: #fff;
        fill: #fff;
      }
      #sword-1 {
        transform: rotate(26deg) scale(1.1);
        transform-origin: 50% 50%;
      }
      #sword-2 {
        transform: rotate(-26deg) scale(1.1);
        transform-origin: 50% 50%;
      }
    </style>
    <mask id="gutter-mask">
      <path
        id="gutter-mask-blade"
        d="
          M 474 500
          L 479 57
          Q 475 28 500 0
          Q 525 28 521 57
          L 526 500
        "
        fill="white"
        />
      <rect
        id="gutter-mask-gutter"
        x="496.75"
        y="74"
        height="329"
        width="7.5"
        rx="2"
        ry="2"
        fill="black"
        />
    </mask>
  </defs>
  <rect id="pink-stripe" x="0" y="0" class="pink" width="500" height="600" />
  <!-- <rect id="middle-stripe" x="401" y="0" class="white" width="200" height="600" /> -->
  <rect id="blue-stripe" x="501" y="0" class="blue" width="500" height="600" />

  <g id="sword-1">
  <circle id="pommel-1" class="purple" cx="500" cy="580" r="20" />
    <path
      id="hilt-1"
      class="purple"
      d="
        M 487 580
        L 477 479
        H 523
        L 513 580
      "
      />
    <rect id="crossguard-1" class="purple" x="454" y="500" width="92" height="11" />
    <path
      id="blade-1"
      class="purple"
      d="
        M 474 500
        L 479 57
        Q 475 28 500 0
        Q 525 28 521 57
        L 526 500
      "
    />
    <line id="gutter" stroke="black" x1="500" y1="70" x2="500" y2="450" />
  </g>
  <g id="sword-2">
  <circle id="pommel-2" class="purple" cx="500" cy="580" r="20" />
    <path
      id="hilt-2"
      class="purple"
      d="
        M 487 580
        L 477 479
        H 523
        L 513 580
      "
      />
    <rect id="crossguard-2" class="purple" x="454" y="500" width="92" height="11" />
    <path
      id="blade-2"
      class="purple"
      d="
        M 474 500
        L 479 57
        Q 475 28 500 0
        Q 525 28 521 57
        L 526 500
      "
    />
    <line id="gutter" stroke="black" x1="500" y1="70" x2="500" y2="450" />
  </g>
  <g id="sword">
  <!--
    Multiplier: 1.5
    Overall Length: 590
    Blade Length: 365 = 550
    Blade tip length: 40 = 60
    Blade Width: 35 = 60-54
    Crossguard width: 130 = 195
    Crossguard thickness: 15 = 23
    Hilt length (to pommel): 175 = 263
    hilt width: 35-30 = 54-40
    Pommel diameter: 35
   -->
   <!--
     Divisor: 5.55
     Overall Length: 3325 = 600
     Blade Length: 2492.1 = 449
     Blade tip length: 317.4 = 57
     Blade Width: 285-231.4 = 51-41
     Crossguard width: 506.7 = 91
     Crossguard thickness: 62.3 = 11
     Hilt length (to pommel): 508.8 = 92
     hilt width: 256.6-145.9 = 46-26
     Pommel diameter: 226.5 = 41
     Gutter top: 408.6 = 74
     Gutter length: 1827.2 = 329
     Gutter width: 41.8 = 7.5
    -->
    <circle id="pommel" class="purple" cx="500" cy="580" r="20" />
    <path
      id="hilt"
      class="purple"
      d="
        M 487 580
        L 477 479
        H 523
        L 513 580
      "
      />
    <rect id="crossguard" class="purple" x="454" y="500" width="92" height="11" />
    <path
      id="blade"
      class="purple"
      d="
        M 474 500
        L 479 57
        Q 475 28 500 0
        Q 525 28 521 57
        L 526 500
      "
    />
    <line id="gutter" stroke="black" x1="500" y1="70" x2="500" y2="450" />
  </g>
</svg>
